<?xml version="1.0" encoding="UTF-8"?>
<svg viewBox="0 0 723 132" version="1.1" xmlns="http://www.w3.org/2000/svg" xmlns:xlink="http://www.w3.org/1999/xlink">
    <!-- Generator: Sketch 51.2 (57519) - http://www.bohemiancoding.com/sketch -->
    <title>Shape</title>
    <desc>Created with Sketch.</desc>
    <defs>
        <radialGradient cx="49.9867194%" cy="50.0042207%" fx="49.9867194%" fy="50.0042207%" r="214.441553%" gradientTransform="translate(0.499867,0.500042),scale(0.182631,1.000000),translate(-0.499867,-0.500042)" id="radialGradient-1">
            <stop stop-color="#6E3B00" offset="0.559837%"></stop>
            <stop stop-color="#6F5928" offset="8.427%"></stop>
            <stop stop-color="#AF9253" offset="66.22%"></stop>
            <stop stop-color="#A18148" offset="100%"></stop>
        </radialGradient>
    </defs>
    <g id="adaptive" stroke="none" stroke-width="1" fill="none" fill-rule="evenodd">
        <path d="M722.309684,98.1399702 C721.809684,97.6399702 721.009684,97.8399702 719.409684,99.2399702 C714.409684,103.83997 708.209684,108.73997 703.109684,112.23997 C691.409684,120.33997 682.309684,122.23997 678.909684,122.23997 C674.909684,122.23997 672.809684,120.03997 672.809684,116.03997 C672.809684,114.43997 673.409684,111.93997 674.409684,109.83997 C680.509684,108.23997 689.609684,104.93997 697.309684,101.13997 C705.309684,97.0399702 713.809684,91.6399702 714.409684,84.6399702 C714.609684,81.1399702 712.509684,77.3399702 706.709684,77.3399702 C699.209684,77.3399702 691.209684,80.8399702 683.509684,84.9399702 C678.409684,87.6399702 673.409684,90.9399702 670.409684,93.0399702 C667.809684,95.0399702 665.809684,96.5399702 663.809684,98.2399702 C663.609684,98.4399702 663.409684,98.5399702 663.209684,98.7399702 C658.609684,102.83997 653.109684,107.63997 645.609684,112.23997 C641.309684,114.93997 636.809684,117.13997 633.909684,118.13997 C637.109684,115.93997 640.809684,110.83997 642.409684,107.03997 C645.609684,99.4399702 645.009684,92.4399702 644.809684,84.8399702 C644.809684,81.8399702 644.509684,79.6399702 646.709684,77.5399702 C648.009684,76.1399702 650.709684,75.1399702 653.109684,73.4399702 C656.509684,71.2399702 660.509684,67.7399702 654.409684,67.7399702 C652.509684,67.7399702 649.609684,68.5399702 646.709684,70.7399702 C644.809684,72.1399702 642.909684,74.2399702 642.409684,75.3399702 C636.309684,80.7399702 631.509684,84.8399702 626.709684,88.3399702 C622.409684,91.5399702 618.209684,94.2399702 615.509684,95.9399702 C614.109684,96.7399702 613.909684,97.3399702 614.109684,98.1399702 C614.709684,98.9399702 615.709684,98.4399702 616.809684,97.8399702 C618.909684,96.7399702 623.209684,94.0399702 626.909684,91.3399702 C631.409684,88.1399702 637.009684,83.7399702 639.709684,81.0399702 C636.809684,84.8399702 632.009684,101.03997 627.209684,108.93997 C621.309684,119.23997 614.709684,123.53997 609.309684,123.53997 C604.509684,123.53997 601.309684,121.13997 601.609684,116.73997 C601.909684,112.93997 605.309684,109.93997 607.709684,108.63997 C611.209684,106.73997 613.009684,104.53997 613.609684,101.83997 C614.109684,98.8399702 612.209684,96.1399702 608.509684,95.8399702 C604.309684,95.6399702 600.209684,98.4399702 597.609684,102.63997 C595.109684,104.83997 592.309684,107.33997 589.109684,109.93997 C584.809684,113.43997 579.809684,116.73997 577.109684,118.03997 C574.509684,119.33997 572.309684,119.93997 571.009684,118.83997 C570.009684,118.03997 570.209684,115.53997 571.809684,112.83997 C573.709684,109.63997 577.109684,104.73997 581.709684,99.0399702 C587.009684,92.0399702 591.009684,87.6399702 595.809684,81.7399702 C599.009684,77.9399702 596.309684,77.4399702 591.809684,77.4399702 C587.809684,77.4399702 586.209684,78.8399702 584.109684,80.4399702 C575.609684,87.2399702 568.109684,93.9399702 555.409684,103.93997 C547.109684,110.43997 541.309684,114.73997 535.409684,118.03997 C532.709684,119.33997 530.309684,119.63997 529.309684,118.53997 C528.509684,117.73997 528.509684,115.83997 529.609684,113.63997 C530.909684,110.63997 535.209684,104.73997 539.509684,99.0399702 C544.809684,92.2399702 549.909684,86.0399702 553.409684,82.2399702 C556.609684,78.7399702 556.109684,77.9399702 550.509684,77.9399702 C545.409684,77.9399702 542.009684,79.0399702 535.009684,83.9399702 C528.609684,88.2399702 519.009684,96.3399702 516.109684,99.1399702 C515.909684,99.3399702 515.709684,99.5399702 515.509684,99.7399702 C512.709684,102.23997 510.609684,104.13997 507.309684,106.43997 C503.609684,109.13997 500.709684,110.53997 498.309684,111.03997 C497.209684,111.33997 494.309684,111.53997 493.209684,111.03997 C501.509684,103.43997 507.609684,95.6399702 508.409684,89.1399702 C508.909684,85.0399702 507.309684,81.8399702 505.209684,79.6399702 C504.109684,78.5399702 502.609684,77.4399702 501.509684,78.0399702 C500.709684,78.5399702 501.809684,79.4399702 501.809684,82.3399702 C501.809684,83.7399702 501.809684,86.6399702 501.009684,88.5399702 C499.109684,89.3399702 495.409684,91.5399702 492.509684,95.5399702 C489.009684,100.13997 488.009684,104.13997 487.709684,106.93997 C479.409684,116.13997 468.809684,123.43997 462.909684,123.43997 C460.009684,123.43997 458.909684,121.53997 459.209684,118.83997 C459.709684,113.43997 466.909684,102.83997 474.709684,95.0399702 C482.109684,87.7399702 487.509684,83.1399702 493.909684,80.1399702 C496.009684,79.0399702 496.809684,79.0399702 496.809684,78.5399702 C496.809684,77.4399702 494.709684,77.4399702 492.809684,77.4399702 C486.709684,77.7399702 478.409684,80.7399702 470.709684,84.7399702 C465.109684,87.7399702 461.409684,90.1399702 457.909684,92.5399702 C455.309684,94.4399702 451.509684,97.4399702 449.709684,99.3399702 C445.409684,103.13997 438.009684,109.63997 434.309684,112.33997 C426.009684,118.33997 419.909684,120.73997 415.409684,120.73997 C412.809684,120.73997 410.409684,119.33997 410.409684,116.13997 C410.409684,106.13997 427.509684,83.6399702 439.409684,68.2399702 C445.509684,67.9399702 454.309684,67.9399702 463.709684,67.9399702 C465.509684,67.9399702 469.609684,68.2399702 469.609684,67.1399702 C469.609684,66.3399702 465.609684,66.0399702 463.509684,65.7399702 C458.809684,65.2399702 449.409684,64.9399702 442.209684,64.6399702 C445.909684,59.5399702 465.509684,37.7399702 472.409684,32.5399702 C479.109684,27.6399702 488.109684,23.3399702 496.709684,23.3399702 C505.209684,23.3399702 509.509684,26.5399702 511.609684,30.9399702 C512.409684,32.5399702 512.409684,33.6399702 512.909684,33.3399702 C513.709684,33.0399702 513.909684,31.4399702 513.209684,29.2399702 C511.909684,25.4399702 506.309684,20.5399702 496.409684,20.5399702 C487.609684,20.5399702 476.909684,24.6399702 469.709684,28.6399702 C462.509684,32.6399702 456.409684,36.1399702 444.309684,46.9399702 C435.309684,54.9399702 430.709684,59.4399702 426.509684,64.5399702 L388.409684,64.5399702 C393.509684,58.0399702 399.109684,49.9399702 407.009684,39.9399702 C413.709684,31.2399702 419.509684,25.0399702 426.209684,18.5399702 C428.809684,15.8399702 431.309684,14.7399702 429.709684,13.6399702 C427.809684,12.5399702 424.609684,14.7399702 420.909684,16.9399702 C412.409684,21.8399702 375.909684,16.9399702 357.809684,16.4399702 C317.309684,15.3399702 297.109684,34.8399702 297.909684,59.4399702 C298.409684,71.6399702 307.209684,83.5399702 320.809684,87.5399702 C322.709684,88.0399702 325.609684,88.0399702 325.809684,87.2399702 C326.109684,86.4399702 325.009684,86.7399702 322.609684,85.9399702 C309.509684,81.6399702 303.109684,69.1399702 303.109684,59.9399702 C303.109684,33.1399702 330.309684,20.9399702 361.209684,22.0399702 C390.009684,23.1399702 408.109684,23.6399702 418.209684,19.8399702 C407.309684,27.1399702 386.209684,47.4399702 372.109684,64.7399702 C364.409684,65.0399702 357.209684,65.2399702 352.409684,65.8399702 C348.709684,66.1399702 345.009684,66.3399702 344.709684,67.4399702 C344.209684,69.0399702 347.909684,68.7399702 349.809684,68.7399702 C359.109684,68.4399702 365.209684,68.2399702 369.509684,68.2399702 C354.309684,88.0399702 328.509684,125.83997 300.009684,125.83997 C294.409684,125.83997 287.209684,123.63997 286.709684,118.03997 C286.709684,115.63997 287.809684,113.43997 290.209684,111.23997 C292.609684,109.03997 294.209684,106.33997 294.409684,103.13997 C294.909684,97.4399702 291.209684,93.4399702 285.909684,93.1399702 C277.909684,92.8399702 272.009684,99.9399702 272.009684,107.23997 C272.009684,122.63997 285.909684,128.33997 298.609684,128.33997 C336.409684,128.33997 360.109684,100.43997 386.009684,68.2399702 L423.609684,67.9399702 C416.909684,76.0399702 398.309684,99.0399702 398.309684,113.13997 C398.309684,121.03997 403.409684,125.03997 411.109684,125.03997 C421.509684,125.03997 431.909684,117.13997 435.909684,114.23997 C440.209684,110.93997 447.909684,104.23997 451.409684,100.93997 C453.609684,99.1399702 454.609684,98.0399702 456.509684,96.4399702 C451.709684,102.13997 448.509684,108.63997 448.309684,114.03997 C448.009684,121.83997 453.109684,125.93997 461.409684,125.93997 C472.309684,125.93997 484.809684,118.13997 491.809684,112.63997 C493.409684,113.73997 496.609684,113.73997 499.009684,113.13997 C501.709684,112.63997 504.809684,111.23997 509.109684,108.23997 C512.509684,105.83997 515.209684,103.33997 517.609684,101.23997 C518.009684,100.93997 518.309684,100.53997 518.709684,100.23997 C521.209684,98.0399702 523.909684,95.7399702 527.509684,92.8399702 C531.509684,89.6399702 537.109684,85.5399702 539.009684,84.7399702 C530.709684,92.5399702 525.409684,99.0399702 520.109684,106.33997 C517.709684,109.53997 515.309684,113.63997 515.109684,117.43997 C514.809684,122.33997 518.309684,125.03997 523.909684,125.03997 C531.909684,125.03997 541.509684,118.53997 552.409684,110.13997 C559.309684,104.73997 568.409684,97.4399702 573.709684,93.1399702 C569.509684,98.0399702 564.409684,103.13997 561.509684,107.53997 C559.109684,111.03997 557.209684,114.83997 557.209684,118.63997 C557.209684,122.63997 560.109684,125.13997 565.509684,125.13997 C574.309684,125.13997 583.609684,118.13997 588.409684,114.33997 C591.209684,112.13997 594.009684,109.73997 596.609684,107.53997 C596.409684,108.23997 596.209684,108.93997 596.109684,109.73997 C595.009684,117.33997 598.009684,125.93997 612.109684,125.93997 C620.109684,125.93997 629.709684,123.23997 634.509684,121.03997 C639.609684,118.83997 645.409684,115.93997 651.309684,111.83997 C656.309684,108.33997 660.709684,104.73997 663.609684,102.13997 C663.909684,101.93997 664.109684,101.73997 664.409684,101.43997 C664.609684,101.23997 664.809684,101.03997 665.009684,100.93997 C666.509684,99.6399702 667.709684,98.5399702 668.209684,98.0399702 C663.209684,104.83997 660.809684,109.73997 660.509684,115.13997 C660.309684,122.13997 664.809684,125.93997 674.609684,125.93997 C683.709684,125.93997 693.509684,122.43997 704.709684,114.83997 C709.509684,111.63997 718.009684,104.53997 721.509684,101.33997 C721.709684,100.33997 722.809684,98.9399702 722.309684,98.1399702 Z M690.109684,88.6399702 C695.409684,83.4399702 699.409684,80.8399702 701.809684,80.8399702 C704.209684,80.8399702 705.309684,82.2399702 705.009684,84.6399702 C704.709684,88.4399702 700.709684,94.1399702 694.109684,98.7399702 C688.509684,102.53997 681.309684,105.53997 676.009684,106.83997 C679.109684,101.43997 685.809684,92.7399702 690.109684,88.6399702 Z M245.409684,119.03997 C248.609684,114.93997 247.309684,112.03997 242.709684,112.03997 C237.909684,112.03997 233.909684,113.33997 232.609684,117.13997 C231.509684,120.33997 231.509684,124.43997 232.909684,126.33997 C235.909684,126.33997 242.209684,123.33997 245.409684,119.03997 Z M215.109684,114.43997 C221.709684,109.03997 226.609684,104.73997 230.009684,101.43997 C231.909684,99.5399702 232.909684,98.4399702 232.409684,97.6399702 C231.609684,96.8399702 230.509684,97.9399702 229.209684,99.0399702 C226.309684,101.73997 221.709684,105.83997 216.409684,110.13997 C207.909684,117.13997 200.409684,121.23997 196.109684,121.23997 C194.009684,121.23997 192.709684,119.93997 192.709684,117.73997 C193.009684,107.73997 207.409684,88.5399702 221.209684,70.9399702 C233.709684,54.9399702 252.909684,33.8399702 265.709684,20.3399702 C271.809684,14.1399702 274.209684,10.3399702 275.809684,6.83997019 C277.109684,3.83997019 276.809684,-0.460029807 275.009684,0.0399701933 C273.709684,0.539970193 275.609684,2.23997019 272.109684,6.53997019 C268.909684,10.8399702 263.309684,15.2399702 254.209684,19.0399702 C244.909684,22.8399702 234.009684,23.6399702 226.809684,23.9399702 C221.709684,24.2399702 214.009684,23.6399702 207.409684,22.5399702 C208.709684,20.9399702 209.809684,19.8399702 211.109684,18.2399702 C214.809684,13.9399702 215.309684,11.7399702 211.409684,11.2399702 C208.709684,10.9399702 205.309684,13.9399702 202.909684,16.1399702 C201.009684,17.7399702 199.209684,19.6399702 197.809684,21.0399702 C185.809684,19.1399702 164.809684,11.1399702 142.709684,10.3399702 C101.109684,8.73997019 76.9096836,25.2399702 74.2096836,50.3399702 C72.9096836,64.6399702 80.8096836,78.5399702 96.3096836,83.0399702 C99.2096836,83.8399702 101.109684,83.6399702 101.409684,82.7399702 C101.709684,81.9399702 100.309684,82.2399702 98.2096836,81.4399702 C81.2096836,75.4399702 78.0096836,61.9399702 80.1096836,51.1399702 C85.2096836,26.8399702 113.109684,15.7399702 142.209684,15.7399702 C165.409684,15.7399702 182.709684,21.3399702 195.509684,23.7399702 C169.109684,48.6399702 145.709684,73.0399702 121.209684,91.1399702 C93.2096836,112.23997 57.3096836,129.03997 34.3096836,129.03997 C21.0096836,129.03997 14.1096836,124.93997 15.1096836,119.53997 C15.6096836,116.53997 17.8096836,115.23997 20.2096836,112.73997 C22.9096836,110.53997 25.5096836,107.83997 26.1096836,103.53997 C26.6096836,98.1399702 22.1096836,94.3399702 16.0096836,94.3399702 C6.40968358,94.3399702 -0.290316416,103.83997 0.0096835843,112.73997 C0.609683584,127.93997 16.6096836,131.93997 31.2096836,131.93997 C59.2096836,131.93997 96.0096836,113.53997 122.309684,93.5399702 C146.009684,75.9399702 180.609684,41.0399702 190.509684,31.3399702 C176.409684,49.4399702 149.809684,94.9399702 134.309684,116.83997 C132.709684,119.03997 131.409684,122.23997 133.509684,124.13997 C135.909684,125.73997 137.209684,123.63997 140.409684,120.63997 C155.609684,106.03997 171.009684,91.9399702 191.309684,74.1399702 C208.909684,58.7399702 227.009684,43.5399702 244.809684,30.0399702 C231.509684,41.6399702 211.509684,63.8399702 200.909684,77.9399702 C189.409684,92.8399702 180.909684,105.53997 181.209684,115.33997 C181.509684,123.13997 186.509684,125.63997 193.209684,125.33997 C200.709684,124.93997 209.709684,118.73997 215.109684,114.43997 Z M210.309684,54.3399702 C191.909684,69.5399702 170.609684,88.4399702 160.209684,97.9399702 C173.309684,80.3399702 192.509684,44.1399702 205.509684,25.1399702 C212.109684,25.9399702 219.909684,26.5399702 226.009684,26.5399702 C234.009684,26.2399702 243.809684,25.1399702 251.609684,22.2399702 L251.609684,22.5399702 C237.709684,32.1399702 224.909684,42.1399702 210.309684,54.3399702 Z" id="Shape" fill="url(#radialGradient-1)" fill-rule="nonzero"></path>
    </g>
</svg>