<svg width="19" height="18" viewBox="0 0 19 18" fill="none" xmlns="http://www.w3.org/2000/svg">
<path fill-rule="evenodd" clip-rule="evenodd" d="M17.4555 0.034668H2.29227C1.56651 0.034668 0.977905 0.597753 0.977905 1.29173V16.326C0.977905 17.0196 1.56651 17.5827 2.29227 17.5827H17.4555C18.1823 17.5827 18.7709 17.0193 18.7709 16.326V1.29173C18.7709 0.5974 18.182 0.034668 17.4555 0.034668ZM6.37093 14.7246H3.68357V6.80087H6.37093V14.7246ZM5.02751 5.71846H5.00951C4.10806 5.71846 3.52485 5.10986 3.52485 4.34956C3.52485 3.57231 4.12606 2.98065 5.04515 2.98065C5.96461 2.98065 6.53018 3.57231 6.54818 4.34956C6.54818 5.10986 5.96425 5.71846 5.02751 5.71846ZM16.0619 14.7246H13.3745V10.4846C13.3745 9.41978 12.9856 8.69299 12.0133 8.69299C11.271 8.69299 10.8289 9.18304 10.6341 9.65651C10.5632 9.82551 10.5459 10.0619 10.5459 10.299V14.7243H7.85851C7.85851 14.7243 7.89379 7.54318 7.85851 6.80051H10.5459V7.9221C10.903 7.3823 11.5417 6.61353 12.9684 6.61353C14.7363 6.61353 16.0622 7.7464 16.0622 10.1804V14.7246H16.0619Z" fill="#B78C4D"/>
</svg>
