<svg width="19" height="19" viewBox="0 0 19 19" fill="none" xmlns="http://www.w3.org/2000/svg">
<path fill-rule="evenodd" clip-rule="evenodd" d="M15.3214 0.799316H4.27871C2.36056 0.799316 0.800049 2.35892 0.800049 4.27639V7.94946V15.3156C0.800049 17.233 2.36056 18.7926 4.27871 18.7926H15.3218C17.2399 18.7926 18.8 17.233 18.8 15.3156V7.9491V4.27603C18.7997 2.35856 17.2395 0.799316 15.3214 0.799316ZM16.3191 2.87285L16.717 2.8714V3.26738V5.92128L13.6762 5.93108L13.6657 2.88156L16.3191 2.87285ZM7.23092 7.94911C7.80749 7.1517 8.74278 6.62869 9.80006 6.62869C10.8573 6.62869 11.7926 7.1517 12.3685 7.94911C12.7435 8.46958 12.9683 9.10619 12.9683 9.7958C12.9683 11.542 11.5457 12.9625 9.7997 12.9625C8.05257 12.9625 6.63148 11.542 6.63148 9.7958C6.63184 9.10619 6.85586 8.46958 7.23092 7.94911ZM17.0459 15.3152C17.0459 16.2665 16.2722 17.0392 15.3213 17.0392H4.2787C3.32744 17.0392 2.55372 16.2665 2.55372 15.3152V7.9491H5.24049C5.00848 8.51966 4.87814 9.14284 4.87814 9.79579C4.87814 12.5081 7.08565 14.7163 9.80001 14.7163C12.514 14.7163 14.7215 12.5081 14.7215 9.79579C14.7215 9.14284 14.5905 8.51966 14.3584 7.9491H17.0459V15.3152Z" fill="#B78C4D"/>
</svg>
