<svg width="19" height="21" viewBox="0 0 19 21" fill="none" xmlns="http://www.w3.org/2000/svg">
<path d="M17.825 18.6374C17.825 18.6567 17.7989 18.8247 17.3673 19.087C16.9683 19.3296 16.3543 19.5677 15.5471 19.7753C13.9409 20.1883 11.6922 20.4499 9.1875 20.4499C6.68281 20.4499 4.43412 20.1883 2.82793 19.7753C2.02068 19.5677 1.40671 19.3296 1.00772 19.087C0.576146 18.8247 0.55 18.6567 0.55 18.6374C0.55 18.6181 0.576146 18.4501 1.00772 18.1878C1.40671 17.9452 2.02068 17.7071 2.82793 17.4995C4.43412 17.0865 6.68281 16.8249 9.1875 16.8249C11.6922 16.8249 13.9409 17.0865 15.5471 17.4995C16.3543 17.7071 16.9683 17.9452 17.3673 18.1878C17.7989 18.4501 17.825 18.6181 17.825 18.6374Z" stroke="#CDA667" stroke-width="1.1"/>
<path d="M15.2 6.41288C15.2 7.19549 14.9424 8.20227 14.4929 9.3407C14.0473 10.4694 13.4306 11.6845 12.7521 12.8701C11.5835 14.9123 10.2494 16.8362 9.33804 18.0343C8.32376 16.8252 6.90859 14.891 5.6857 12.838C4.98256 11.6576 4.34999 10.4495 3.89475 9.32703C3.43559 8.19494 3.175 7.19348 3.175 6.41288C3.175 3.18679 5.85486 0.55 9.1875 0.55C12.5201 0.55 15.2 3.18679 15.2 6.41288Z" fill="#F8F8F8" stroke="#CDA667" stroke-width="1.1"/>
<circle cx="9.18755" cy="6.56255" r="2.3375" stroke="#CDA667" stroke-width="1.1"/>
</svg>
