<svg width="20" height="20" viewBox="0 0 20 20" fill="none" xmlns="http://www.w3.org/2000/svg">
<path fill-rule="evenodd" clip-rule="evenodd" d="M18.5191 18.5111C19.7 17.3301 19.7 14.9685 19.7 10.2458C19.7 5.52315 19.7 3.16152 18.5191 1.98057C17.338 0.799316 14.9755 0.799316 10.25 0.799316C5.52437 0.799316 3.16187 0.799316 1.98077 1.98057C0.799957 3.16152 0.799957 5.52315 0.799957 10.2458C0.799957 14.9685 0.799957 17.3301 1.98077 18.5111C3.16187 19.6923 5.52437 19.6923 10.25 19.6923C14.9755 19.6923 17.338 19.6923 18.5191 18.5111ZM13.8547 12.5779C13.1939 12.9931 12.476 13.2883 11.7303 13.458L13.7753 15.5023C14.1943 15.9193 14.1943 16.5982 13.7753 17.017C13.3564 17.4359 12.679 17.4359 12.26 17.017L10.2501 15.0078L8.24011 17.017C8.02968 17.2255 7.75652 17.3307 7.48151 17.3307C7.20835 17.3307 6.93518 17.2255 6.72477 17.017C6.30582 16.5982 6.30582 15.9211 6.72477 15.5023L8.76796 13.458C8.0223 13.2883 7.30432 12.9931 6.64356 12.5779C6.14338 12.2624 5.99203 11.6001 6.30765 11.1001C6.62326 10.5982 7.28404 10.4469 7.78605 10.7624C9.28475 11.7034 11.2135 11.7052 12.7122 10.7624C13.2143 10.4469 13.875 10.5982 14.1906 11.1001C14.5062 11.6019 14.3549 12.2624 13.8547 12.5779ZM10.25 5.30487C11.0862 5.30487 11.7654 5.98383 11.7654 6.81962C11.7654 7.65357 11.0862 8.33253 10.25 8.33253C9.41578 8.33253 8.73469 7.65357 8.73469 6.81962C8.73469 5.98383 9.41578 5.30487 10.25 5.30487ZM13.9083 6.8196C13.9083 8.83437 12.2675 10.4746 10.2501 10.4746C8.23273 10.4746 6.59192 8.83437 6.59192 6.81777C6.59192 4.80117 8.23273 3.16095 10.2501 3.16095C12.2675 3.16095 13.9083 4.80117 13.9083 6.8196Z" fill="#B78C4D"/>
</svg>
