<svg width="16" height="21" viewBox="0 0 16 21" fill="none" xmlns="http://www.w3.org/2000/svg">
<path fill-rule="evenodd" clip-rule="evenodd" d="M8.81305 0.899658C3.41949 0.899658 0.700012 4.7723 0.700012 8.00173C0.700012 9.95712 1.43923 11.6967 3.02472 12.345C3.28471 12.4514 3.51758 12.3486 3.59298 12.0604C3.64543 11.8609 3.76949 11.3576 3.82484 11.148C3.90087 10.8628 3.87137 10.7628 3.66157 10.5143C3.20439 9.97429 2.91226 9.27514 2.91226 8.28482C2.91226 5.41172 5.05869 2.83964 8.5015 2.83964C11.5501 2.83964 13.2249 4.70512 13.2249 7.19652C13.2249 10.4746 11.7764 13.2412 9.62591 13.2412C8.43821 13.2412 7.5492 12.2576 7.83427 11.0512C8.17545 9.61102 8.8365 8.05666 8.8365 7.01709C8.8365 6.0865 8.33772 5.31033 7.30535 5.31033C6.09131 5.31033 5.11606 6.56808 5.11606 8.253C5.11606 9.32616 5.47817 10.0519 5.47817 10.0519C5.47817 10.0519 4.23575 15.3238 4.018 16.2469C3.58428 18.0856 3.95282 20.3396 3.98396 20.5673C4.00224 20.7021 4.17535 20.7342 4.25378 20.6323C4.36574 20.486 5.81165 18.6983 6.30325 16.912C6.44232 16.4061 7.10173 13.787 7.10173 13.787C7.49612 14.5404 8.64889 15.2041 9.87479 15.2041C13.5241 15.2041 16 11.8722 16 7.41244C16 4.04032 13.1479 0.899658 8.81305 0.899658Z" fill="#B78C4D"/>
</svg>
