<svg width="20" height="17" viewBox="0 0 20 17" fill="none" xmlns="http://www.w3.org/2000/svg">
<path fill-rule="evenodd" clip-rule="evenodd" d="M19.8 2.61593C19.0716 2.94113 18.2886 3.16082 17.467 3.25966C18.3056 2.75372 18.9498 1.95257 19.253 0.997876C18.4681 1.46645 17.5987 1.8066 16.6734 1.98993C15.9325 1.19535 14.8768 0.698975 13.7084 0.698975C11.465 0.698975 9.64612 2.52935 9.64612 4.78705C9.64612 5.10747 9.68205 5.41952 9.75125 5.71872C6.37517 5.54825 3.38202 3.92063 1.37857 1.44722C1.0289 2.051 0.828527 2.75322 0.828527 3.50247C0.828527 4.92085 1.54568 6.17215 2.63566 6.90526C1.96969 6.88404 1.34342 6.70011 0.795758 6.39394C0.795362 6.41098 0.795362 6.42811 0.795362 6.44535C0.795362 8.42607 2.19561 10.0784 4.05393 10.454C3.71308 10.5475 3.3542 10.5974 2.98365 10.5974C2.72179 10.5974 2.46736 10.5717 2.21927 10.5241C2.73635 12.1482 4.23639 13.3302 6.01402 13.3631C4.62377 14.4597 2.87227 15.1132 0.969007 15.1132C0.641121 15.1132 0.317788 15.0939 0 15.056C1.79773 16.216 3.93305 16.8929 6.22697 16.8929C13.6988 16.8929 17.7847 10.6634 17.7847 5.261C17.7847 5.08376 17.7807 4.9075 17.7729 4.73205C18.5668 4.15577 19.2554 3.43571 19.8 2.61593Z" fill="#B78C4D"/>
</svg>
