<svg width="26" height="15" viewBox="0 0 26 15" fill="none" xmlns="http://www.w3.org/2000/svg">
<path d="M25.8663 13.5986C25.8358 13.5327 25.8074 13.4781 25.781 13.4344C25.3437 12.646 24.5082 11.6783 23.2749 10.5311L23.2489 10.5048L23.2358 10.4919L23.2226 10.4787H23.2094C22.6497 9.9445 22.2952 9.58531 22.1468 9.40141C21.8752 9.05109 21.8143 8.6965 21.9628 8.33721C22.0676 8.06576 22.4616 7.49248 23.1436 6.6166C23.5024 6.15241 23.7865 5.78038 23.9964 5.50009C25.5097 3.4858 26.1658 2.19864 25.9645 1.63811L25.8864 1.50712C25.8339 1.42826 25.6983 1.35611 25.4799 1.29032C25.2609 1.22467 24.9811 1.21381 24.6399 1.25756L20.8613 1.2837C20.8 1.26198 20.7126 1.264 20.5988 1.29032C20.485 1.31664 20.4281 1.32984 20.4281 1.32984L20.3624 1.36274L20.3102 1.40226C20.2664 1.4284 20.2183 1.47436 20.1658 1.54006C20.1135 1.60553 20.0698 1.68237 20.0349 1.76992C19.6235 2.82957 19.1558 3.81476 18.6308 4.72547C18.3072 5.26852 18.0099 5.73915 17.7385 6.13764C17.4674 6.53599 17.2399 6.82948 17.0564 7.01762C16.8726 7.20593 16.7067 7.3568 16.5577 7.47076C16.4089 7.58477 16.2954 7.63295 16.2167 7.61532C16.1379 7.5977 16.0637 7.58022 15.9934 7.56274C15.8711 7.48388 15.7726 7.37663 15.6984 7.2409C15.6239 7.10517 15.5737 6.93434 15.5475 6.72854C15.5213 6.5226 15.5059 6.34547 15.5015 6.19653C15.4974 6.04778 15.4993 5.83738 15.5082 5.56593C15.5173 5.29433 15.5213 5.11057 15.5213 5.01423C15.5213 4.6814 15.5278 4.32018 15.5408 3.93048C15.5541 3.54078 15.5648 3.23201 15.5737 3.00454C15.5827 2.77684 15.5868 2.53593 15.5868 2.28196C15.5868 2.02799 15.5713 1.82881 15.5408 1.68425C15.5107 1.53988 15.4644 1.39973 15.4034 1.26387C15.3421 1.12814 15.2523 1.02314 15.1345 0.948609C15.0164 0.874166 14.8696 0.81509 14.6949 0.771197C14.2313 0.666157 13.6409 0.609336 12.9235 0.600502C11.2966 0.583018 10.2513 0.688196 9.78769 0.915896C9.60401 1.0121 9.43779 1.14355 9.28917 1.30983C9.13168 1.50256 9.10971 1.60774 9.22341 1.62504C9.74831 1.70376 10.1199 1.89208 10.3386 2.1898L10.4174 2.34757C10.4787 2.4614 10.5399 2.66292 10.6012 2.95186C10.6624 3.2408 10.7018 3.56042 10.7192 3.91056C10.7629 4.54995 10.7629 5.09728 10.7192 5.55259C10.6754 6.00808 10.6341 6.36267 10.5946 6.61664C10.5551 6.87062 10.4961 7.07642 10.4174 7.234C10.3386 7.39163 10.2862 7.48797 10.2599 7.52294C10.2336 7.5579 10.2118 7.57994 10.1944 7.58859C10.0807 7.63221 9.96246 7.65443 9.84008 7.65443C9.71752 7.65443 9.5689 7.59306 9.39399 7.4704C9.21913 7.34773 9.03766 7.17925 8.84956 6.96466C8.66147 6.75003 8.44934 6.45009 8.21308 6.06481C7.97701 5.67953 7.73207 5.22417 7.47839 4.69874L7.26852 4.31769C7.13731 4.07256 6.95809 3.71561 6.73065 3.24719C6.50308 2.77859 6.30194 2.3253 6.12708 1.88743C6.05718 1.70353 5.95217 1.56352 5.81224 1.46718L5.74657 1.42766C5.70291 1.39269 5.63283 1.35556 5.53669 1.31599C5.44041 1.27647 5.33996 1.24813 5.2349 1.23069L1.63987 1.25683C1.2725 1.25683 1.02324 1.34015 0.89199 1.50656L0.839463 1.58529C0.813223 1.62913 0.799988 1.69916 0.799988 1.79555C0.799988 1.89189 0.826228 2.01014 0.878755 2.15014C1.40356 3.38504 1.97428 4.57599 2.59091 5.72319C3.20754 6.87039 3.74338 7.79449 4.19811 8.49466C4.65292 9.19533 5.11652 9.85663 5.5889 10.4782C6.06127 11.1 6.37395 11.4985 6.52693 11.6736C6.6801 11.849 6.80042 11.9801 6.88787 12.0677L7.21594 12.3829C7.42587 12.5931 7.73413 12.8448 8.14088 13.1382C8.54773 13.4316 8.99813 13.7206 9.49234 14.0054C9.98663 14.2898 10.5617 14.5219 11.2178 14.7014C11.8738 14.881 12.5123 14.9531 13.1334 14.9184H14.6423C14.9483 14.8919 15.1801 14.7956 15.3377 14.6293L15.3899 14.5634C15.425 14.5112 15.4579 14.43 15.4882 14.3207C15.5189 14.2112 15.5342 14.0906 15.5342 13.9595C15.5252 13.583 15.5538 13.2437 15.6193 12.9416C15.6847 12.6396 15.7592 12.4119 15.8426 12.2585C15.9259 12.1053 16.0199 11.976 16.1246 11.8712C16.2294 11.7662 16.3041 11.7025 16.348 11.6806C16.3916 11.6586 16.4263 11.6436 16.4526 11.6347C16.6625 11.5646 16.9096 11.6325 17.1941 11.8384C17.4784 12.0442 17.7451 12.2983 17.9946 12.6004C18.2439 12.9026 18.5434 13.2418 18.8932 13.6183C19.2433 13.9949 19.5493 14.2749 19.8116 14.459L20.074 14.6167C20.2491 14.7218 20.4766 14.8182 20.7565 14.9057C21.036 14.9933 21.2808 15.0152 21.4911 14.9714L24.8498 14.9189C25.182 14.9189 25.4405 14.8639 25.6239 14.7546C25.8076 14.6451 25.9168 14.5246 25.952 14.3934C25.9871 14.2621 25.989 14.1131 25.9586 13.9465C25.9275 13.7804 25.8969 13.6642 25.8663 13.5986Z" fill="#B78C4D"/>
</svg>
