<svg width="39" height="38" viewBox="0 0 39 38" fill="none" xmlns="http://www.w3.org/2000/svg">
<g clip-path="url(#clip0)">
<path d="M37.236 25.1312C37.2038 25.0715 37.1575 25.0268 37.0971 24.9946C37.0391 24.9625 36.9794 24.946 36.9174 24.946C36.8547 24.946 36.795 24.9625 36.737 24.9946C36.6789 25.0268 36.631 25.0715 36.5989 25.1312C36.5667 25.1884 36.5502 25.2496 36.5502 25.3132C36.5502 25.3768 36.5667 25.438 36.5989 25.4952C36.6326 25.5533 36.6781 25.6004 36.7354 25.6325C36.7935 25.6647 36.8547 25.6812 36.919 25.6812C36.981 25.6812 37.0422 25.6647 37.1003 25.6325C37.1575 25.6004 37.2031 25.5533 37.236 25.4952C37.2682 25.438 37.2847 25.376 37.2847 25.3132C37.2847 25.2496 37.269 25.1884 37.236 25.1312ZM37.043 25.4497H36.963L36.9143 25.3289H36.8664V25.4497H36.8021V25.1421H36.9308C36.9465 25.1421 36.9786 25.1429 37.0108 25.1594C37.0273 25.1751 37.043 25.2057 37.043 25.2363C37.043 25.27 37.0273 25.3022 36.9951 25.3163L37.043 25.4497Z" fill="#B78C4D"/>
<path d="M36.9473 25.2049C36.9473 25.1986 36.9151 25.1986 36.8986 25.1986H36.8665V25.2779H36.9151C36.9151 25.2779 36.9316 25.2779 36.9473 25.2716C36.9637 25.2645 36.9637 25.2496 36.9637 25.2355C36.9637 25.2237 36.9637 25.2112 36.9473 25.2049Z" fill="#B78C4D"/>
<path d="M26.6858 7.62354C23.7489 7.62432 21.0732 8.73772 19.0567 10.5644C17.0386 8.73851 14.3646 7.62589 11.4316 7.62589C11.4073 7.62589 11.383 7.62589 11.3586 7.62589C5.1145 7.66669 0.059082 12.7464 0.059082 18.9992C0.059082 25.2779 5.15452 30.3718 11.4316 30.3718C14.3646 30.3718 17.0379 29.2591 19.0559 27.4333C18.6346 27.0527 18.2533 26.6314 17.8931 26.1904H20.2423C19.8877 26.6251 19.5008 27.0316 19.0873 27.4082H19.085C19.0858 27.4097 19.0858 27.4097 19.0858 27.4097C19.0763 27.4184 19.0661 27.4247 19.0567 27.4341C21.074 29.2631 23.7528 30.3765 26.6905 30.3757C32.9723 30.3741 38.0607 25.2802 38.0591 19C38.0591 18.9976 38.0591 18.9961 38.0591 18.9945C38.0575 12.7143 32.9644 7.62354 26.6858 7.62354ZM18.0226 11.7397H20.1835C20.5036 12.125 20.7994 12.5322 21.0662 12.9575H17.2113C17.4576 12.5503 17.7307 12.1336 18.0226 11.7397ZM16.538 14.1525H21.7206C21.9065 14.5472 22.0697 14.9536 22.211 15.3711H15.9237C15.9857 15.2534 16.2054 14.7794 16.538 14.1525ZM10.807 21.7266H9.45747L10.2609 17.5131L8.41312 21.7266H7.19222L6.96703 17.5414L6.16356 21.7266H4.94188L5.98702 16.2483H8.0922L8.18871 19.641L9.68345 16.2483H11.8694L10.807 21.7266ZM15.5808 19.3594L15.2913 20.942L15.2434 21.2252L15.2112 21.4512L15.1947 21.6034L15.179 21.7243H14.0547L14.0868 21.2637C13.7502 21.6309 13.2834 21.8012 12.6729 21.8012C11.9495 21.8012 11.4512 21.3045 11.4512 20.5858C11.4512 19.5014 12.319 18.8674 13.813 18.8674C13.9574 18.8674 14.1504 18.8807 14.3591 18.9019C14.3913 18.7552 14.4078 18.694 14.4078 18.6124C14.4078 18.3182 14.1661 18.2083 13.5399 18.2083C13.1539 18.2083 12.72 18.2546 12.4312 18.3315L12.2382 18.3801L12.126 18.4092L12.3026 17.4056C12.9774 17.2346 13.4113 17.171 13.9095 17.171C15.0661 17.171 15.6773 17.6237 15.6773 18.4774C15.6773 18.6987 15.6616 18.8643 15.5808 19.3594ZM18.2658 17.1608C19.3737 17.1608 20.0815 17.7909 20.0815 18.7787C20.0815 19.1091 20.0328 19.4284 19.919 19.8804H17.2528C17.2364 19.9486 17.2364 19.9792 17.2364 20.0216C17.2364 20.5371 17.6381 20.8 18.4094 20.8C18.892 20.8 19.3259 20.7136 19.8076 20.5175L19.5832 21.6332C19.1328 21.7541 18.6832 21.8129 18.2172 21.8129C16.7067 21.8129 15.919 21.1279 15.919 19.8152C15.919 18.2875 16.9155 17.1624 18.2658 17.1608ZM21.0803 25.0205H17.0449C16.8001 24.6282 16.5702 24.2257 16.3733 23.8028H21.7425C21.5456 24.2241 21.3251 24.629 21.0803 25.0205ZM23.5527 18.2938C23.1988 18.253 22.8457 18.2287 22.5719 18.2287C22.1372 18.2287 21.9128 18.3511 21.9128 18.5904C21.9128 18.7991 21.9771 18.8494 22.5397 19.0753C23.2294 19.346 23.5041 19.7046 23.5041 20.3158C23.5041 21.3327 22.845 21.8027 21.3981 21.8027C21.2223 21.8027 20.9814 21.7894 20.6597 21.7658C20.4989 21.7541 20.371 21.7415 20.2894 21.725L20.0485 21.6811L19.9842 21.6686L20.1772 20.6407C20.6111 20.7631 20.9822 20.8164 21.3989 20.8164C21.9293 20.8164 22.1702 20.6925 22.1702 20.4147C22.1702 20.2107 22.0894 20.1448 21.5432 19.9227C20.8206 19.6316 20.4989 19.2425 20.4989 18.6807C20.4989 17.8576 21.0293 17.1726 22.5405 17.1726C22.8622 17.1726 23.3926 17.2118 23.7449 17.2605L23.5527 18.2938ZM25.6595 20.7293C25.803 20.7293 25.9152 20.7152 26.0118 20.6862L25.8352 21.6748C25.4657 21.776 25.1769 21.8208 24.8709 21.8208C24.1796 21.8208 23.8101 21.4732 23.8101 20.8415C23.8101 20.716 23.8258 20.5826 23.8422 20.4414L23.923 20.0028L23.9866 19.6505L24.6135 16.2483H25.9466L25.7544 17.2714H26.4449L26.2519 18.3558H25.5606L25.2075 20.2146C25.191 20.2954 25.191 20.3566 25.191 20.3982C25.191 20.6297 25.3362 20.7278 25.6595 20.7293ZM28.9463 18.5253C28.3037 18.5253 28.0958 19.0039 27.6132 21.729H26.2628L27.0828 17.2722H28.3045L28.1758 17.9486C28.594 17.4221 28.9141 17.2244 29.3488 17.2244C29.3975 17.2244 29.4461 17.2291 29.494 17.2354C29.494 17.2377 29.5434 17.2463 29.6085 17.262C29.6242 17.2667 29.6399 17.2667 29.7529 17.3107L29.2727 18.57L29.1119 18.5371C29.0475 18.5292 28.9997 18.5253 28.9463 18.5253ZM31.3308 21.8459C29.8008 21.8459 29.1919 20.9216 29.1919 19.7909C29.1919 18.213 30.2362 17.142 31.8432 17.142C33.243 17.142 33.9821 18.0223 33.9821 19.1522C33.9821 19.4292 33.9821 19.448 33.9499 19.707C33.7404 21.1891 32.7118 21.8475 31.3308 21.8459ZM34.0943 21.7266C33.9013 21.7266 33.7404 21.5705 33.7404 21.3775C33.7404 21.1876 33.9013 21.0314 34.0943 21.0314C34.2873 21.0314 34.4482 21.1876 34.4482 21.3775C34.4482 21.5713 34.2873 21.7266 34.0943 21.7266Z" fill="#B78C4D"/>
<path d="M34.0943 21.1138C33.95 21.1138 33.8213 21.2323 33.8213 21.3775C33.8213 21.5265 33.95 21.6442 34.0943 21.6442C34.2395 21.6442 34.3517 21.525 34.3517 21.3775C34.3517 21.2331 34.2395 21.1138 34.0943 21.1138ZM34.2222 21.5328H34.1414L34.0928 21.4128H34.0441V21.5328H33.9798V21.2244H34.1085C34.1257 21.2244 34.1579 21.226 34.1901 21.2425C34.2058 21.2574 34.2222 21.288 34.2222 21.3194C34.2222 21.3523 34.2058 21.3853 34.1736 21.3994L34.2222 21.5328Z" fill="#B78C4D"/>
<path d="M34.1257 21.2872C34.1265 21.2802 34.0943 21.2802 34.0786 21.2802H34.0449V21.3594H34.0935C34.0935 21.3594 34.11 21.3594 34.1257 21.3531C34.1422 21.3461 34.1422 21.3312 34.1422 21.3178C34.1422 21.3061 34.1422 21.2935 34.1257 21.2872Z" fill="#B78C4D"/>
<path d="M18.2493 18.1816C17.8154 18.1816 17.5102 18.4649 17.3815 18.9812L18.8763 18.9843C18.8763 18.887 18.8763 18.8117 18.8763 18.7536C18.8763 18.3919 18.6511 18.1816 18.2493 18.1816Z" fill="#B78C4D"/>
<path d="M13.893 19.725C13.139 19.7242 12.7529 19.9526 12.7529 20.4029C12.7529 20.6799 12.9303 20.8572 13.2347 20.8572C13.7816 20.8572 14.1668 20.4006 14.199 19.7415C14.0539 19.7266 13.9895 19.725 13.893 19.725Z" fill="#B78C4D"/>
<path d="M31.8118 18.2326C31.1206 18.2326 30.7031 19.0447 30.7031 19.7603C30.7031 20.3661 30.9919 20.7725 31.4744 20.7631C31.7647 20.7631 32.3901 20.3637 32.5031 19.6709C32.5345 19.5084 32.551 19.3303 32.551 19.1365C32.551 18.672 32.3587 18.2311 31.8118 18.2326Z" fill="#B78C4D"/>
</g>
<defs>
<clipPath id="clip0">
<rect x="0.059082" width="38" height="38" fill="white"/>
</clipPath>
</defs>
</svg>
