<svg width="36" height="22" viewBox="0 0 36 22" fill="none" xmlns="http://www.w3.org/2000/svg">
<path d="M22.4847 19.0883H13.0032V2.59819H22.4847V19.0883Z" fill="#E1BD87"/>
<path d="M13.6107 10.8422C13.6107 7.49712 15.2291 4.51741 17.7494 2.59717C15.9063 1.19299 13.5804 0.354886 11.0525 0.354886C5.06806 0.354886 0.21698 5.05015 0.21698 10.8422C0.21698 16.6343 5.06806 21.3295 11.0525 21.3295C13.5804 21.3295 15.9063 20.4914 17.7494 19.0873C15.2291 17.167 13.6107 14.1873 13.6107 10.8422Z" fill="#B78C4D"/>
<path d="M35.2721 10.8422C35.2721 16.6343 30.421 21.3295 24.4365 21.3295C21.9087 21.3295 19.5827 20.4914 17.739 19.0873C20.26 17.167 21.8784 14.1873 21.8784 10.8422C21.8784 7.49712 20.26 4.51741 17.739 2.59717C19.5827 1.19299 21.9087 0.354886 24.4365 0.354886C30.421 0.354886 35.2721 5.05015 35.2721 10.8422Z" fill="#B78C4D"/>
</svg>
