<svg width="45" height="13" viewBox="0 0 45 13" fill="none" xmlns="http://www.w3.org/2000/svg">
<g clip-path="url(#clip0)">
<path fill-rule="evenodd" clip-rule="evenodd" d="M39.2459 0.252033H30.925C31.3724 3.05648 34.0566 5.68 37.0091 5.68H43.6301C43.7195 5.4086 43.7195 5.04673 43.7195 4.77534C43.7195 2.24229 41.7511 0.252033 39.2459 0.252033Z" fill="#B78C4D"/>
<path fill-rule="evenodd" clip-rule="evenodd" d="M31.6409 6.13224V12.9172H35.6671V9.29855H39.246C41.2144 9.29855 42.9143 7.94156 43.4512 6.13224H31.6409Z" fill="#B78C4D"/>
<path fill-rule="evenodd" clip-rule="evenodd" d="M17.3253 0.252033V12.9173H20.9042C20.9042 12.9173 21.7989 12.9173 22.2463 12.0126C24.662 7.12745 25.3778 5.68 25.3778 5.68H25.8252V12.9173H29.8514V0.252033H26.2725C26.2725 0.252033 25.3778 0.342499 24.9304 1.15669C22.8726 5.31813 21.7989 7.48932 21.7989 7.48932H21.3516V0.252033H17.3253Z" fill="#B78C4D"/>
<path fill-rule="evenodd" clip-rule="evenodd" d="M0.325684 12.9172V0.251923H4.35192C4.35192 0.251923 5.51506 0.251923 6.14136 2.06124C7.75185 6.85594 7.9308 7.48921 7.9308 7.48921C7.9308 7.48921 8.28869 6.31315 9.72024 2.06124C10.3465 0.251923 11.5097 0.251923 11.5097 0.251923H15.5359V12.9172H11.5097V6.13222H11.0623L8.82552 12.9172H7.03608L4.79928 6.13222H4.35192V12.9172H0.325684Z" fill="#B78C4D"/>
</g>
<defs>
<clipPath id="clip0">
<rect x="0.325684" y="0.251923" width="43.8412" height="12.6652" fill="white"/>
</clipPath>
</defs>
</svg>
