<svg width="40" height="13" viewBox="0 0 40 13" fill="none" xmlns="http://www.w3.org/2000/svg">
<path d="M17.7 12.5365H14.5107L16.504 0.286464H19.6937L17.7 12.5365ZM11.8277 0.286464L8.78712 8.71213L8.42733 6.89776L8.42765 6.89841L7.3545 1.38944C7.3545 1.38944 7.22474 0.286464 5.84159 0.286464H0.814964L0.755981 0.493886C0.755981 0.493886 2.29313 0.813702 4.0921 1.89407L6.86298 12.5368H10.186L15.2601 0.286464H11.8277ZM36.9133 12.5365H39.8418L37.2885 0.286137H34.7247C33.5408 0.286137 33.2524 1.19906 33.2524 1.19906L28.4958 12.5365H31.8205L32.4853 10.7169H36.5397L36.9133 12.5365ZM33.4038 8.20324L35.0796 3.61898L36.0223 8.20324H33.4038ZM28.7452 3.23232L29.2003 0.601693C29.2003 0.601693 27.7959 0.0675735 26.3318 0.0675735C24.7491 0.0675735 20.9906 0.759308 20.9906 4.12295C20.9906 7.2877 25.4019 7.32702 25.4019 8.98935C25.4019 10.6517 21.4451 10.3538 20.1393 9.30556L19.6651 12.0561C19.6651 12.0561 21.0893 12.7478 23.2651 12.7478C25.4415 12.7478 28.7249 11.621 28.7249 8.55386C28.7249 5.3688 24.274 5.07225 24.274 3.68747C24.2743 2.30236 27.3804 2.48029 28.7452 3.23232Z" fill="#B78C4D"/>
<path d="M8.42764 6.89783L7.35449 1.38887C7.35449 1.38887 7.22473 0.285896 5.84159 0.285896H0.814964L0.755981 0.493318C0.755981 0.493318 3.17197 0.994013 5.48933 2.86998C7.70511 4.66305 8.42764 6.89783 8.42764 6.89783Z" fill="#B78C4D"/>
</svg>
